<?xml version="1.0" encoding="UTF-8"?>
<svg width="500" height="500" viewBox="0 0 500 500" xmlns="http://www.w3.org/2000/svg">
  <path d="M124.781 191.953C124.781 187.785 126.031 184.437 128.531 181.91C131.031 179.383 134.234 178.12 138.141 178.12C142.047 178.12 145.25 179.383 147.75 181.91C150.25 184.437 151.5 187.785 151.5 191.953V219.859C151.5 224.027 150.25 227.375 147.75 229.902C145.25 232.43 142.047 233.693 138.141 233.693C134.234 233.693 131.031 232.43 128.531 229.902C126.031 227.375 124.781 224.027 124.781 219.859V191.953ZM71.5156 19.0391C71.5156 14.8711 72.7656 11.5234 75.2656 8.99609C77.7656 6.46875 80.9688 5.20508 84.875 5.20508C88.7812 5.20508 91.9844 6.46875 94.4844 8.99609C96.9844 11.5234 98.2344 14.8711 98.2344 19.0391V219.859C98.2344 224.027 96.9844 227.375 94.4844 229.902C91.9844 232.43 88.7812 233.693 84.875 233.693C80.9688 233.693 77.7656 232.43 75.2656 229.902C72.7656 227.375 71.5156 224.027 71.5156 219.859V19.0391ZM18.25 75.8203C18.25 71.6523 19.5 68.3047 22 65.7773C24.5 63.25 27.7031 61.9863 31.6094 61.9863C35.5156 61.9863 38.7188 63.25 41.2188 65.7773C43.7188 68.3047 44.9688 71.6523 44.9688 75.8203V219.859C44.9688 224.027 43.7188 227.375 41.2188 229.902C38.7188 232.43 35.5156 233.693 31.6094 233.693C27.7031 233.693 24.5 232.43 22 229.902C19.5 227.375 18.25 224.027 18.25 219.859V75.8203ZM178.219 61.9863C178.219 57.8184 179.469 54.4707 181.969 51.9434C184.469 49.416 187.672 48.1523 191.578 48.1523C195.484 48.1523 198.688 49.416 201.188 51.9434C203.688 54.4707 204.938 57.8184 204.938 61.9863V219.859C204.938 224.027 203.688 227.375 201.188 229.902C198.688 232.43 195.484 233.693 191.578 233.693C187.672 233.693 184.469 232.43 181.969 229.902C179.469 227.375 178.219 224.027 178.219 219.859V61.9863ZM231.656 61.9863C231.656 57.8184 232.906 54.4707 235.406 51.9434C237.906 49.416 241.109 48.1523 245.016 48.1523C248.922 48.1523 252.125 49.416 254.625 51.9434C257.125 54.4707 258.375 57.8184 258.375 61.9863V93.2988L308.969 42.1133C311.938 39.1172 315.516 37.6191 319.703 37.6191C323.891 37.6191 327.422 39.1172 330.297 42.1133C333.172 45.1094 334.609 48.6504 334.609 52.7363C334.609 56.8223 333.172 60.3633 330.297 63.3594L275.359 119.059L338.812 185.836C341.688 188.832 343.125 192.373 343.125 196.459C343.125 200.545 341.688 204.086 338.812 207.082C335.938 210.078 332.406 211.576 328.219 211.576C324.031 211.576 320.5 210.078 317.625 207.082L258.375 143.715V219.859C258.375 224.027 257.125 227.375 254.625 229.902C252.125 232.43 248.922 233.693 245.016 233.693C241.109 233.693 237.906 232.43 235.406 229.902C232.906 227.375 231.656 224.027 231.656 219.859V61.9863ZM389 52.7363C389 48.6504 390.344 45.1094 393.031 42.1133C395.719 39.1172 399.156 37.6191 403.344 37.6191C407.531 37.6191 411.016 39.1172 413.797 42.1133C416.578 45.1094 417.969 48.6504 417.969 52.7363V191.953C417.969 196.121 419.219 199.469 421.719 201.996C424.219 204.523 427.422 205.787 431.328 205.787H453.391C457.578 205.787 461.016 207.285 463.703 210.281C466.391 213.277 467.734 216.818 467.734 220.904C467.734 224.99 466.391 228.531 463.703 231.527C461.016 234.523 457.578 236.021 453.391 236.021H431.328C418.703 236.021 408.406 232.023 400.438 224.027C392.469 216.031 388.484 205.377 388.484 191.064V52.7363H389Z" 
  fill="#2D7474"/>
  <path d="M150 750C150 750 150 550 450 450M450 450L375 375M450 450L375 525" stroke="#2D7474" stroke-width="50" stroke-linecap="round" stroke-linejoin="round" transform="translate(0, 220) scale(0.5)"/>
</svg>